<svg xmlns="http://www.w3.org/2000/svg" width="1200" height="360" viewBox="0 0 1200 360">
<defs>
  <linearGradient id="bg" x1="0" y1="0" x2="1" y2="1"><stop stop-color="#080b12"/><stop offset="1" stop-color="#0d1420"/></linearGradient>
  <linearGradient id="accent" x1="0" y1="0" x2="1" y2="0"><stop stop-color="#46d9ff"/><stop offset="1" stop-color="#8b5cf6"/></linearGradient>
  <pattern id="grid" width="32" height="32" patternUnits="userSpaceOnUse"><path d="M32 0H0V32" fill="none" stroke="#ffffff" stroke-opacity=".035"/></pattern>
  <filter id="glow"><feGaussianBlur stdDeviation="5" result="b"/><feMerge><feMergeNode in="b"/><feMergeNode in="SourceGraphic"/></feMerge></filter>
</defs>
<rect width="1200" height="360" rx="24" fill="url(#bg)"/>
<rect width="1200" height="360" rx="24" fill="url(#grid)"/>
<rect x="42" y="36" width="1116" height="288" rx="18" fill="none" stroke="#ffffff" stroke-opacity=".08"/>
<circle cx="68" cy="61" r="5" fill="#ff5f57"/><circle cx="86" cy="61" r="5" fill="#febc2e"/><circle cx="104" cy="61" r="5" fill="#28c840"/>
<text x="130" y="66" fill="#718096" font-family="ui-monospace, SFMono-Regular, Menlo, monospace" font-size="14">hisham@ai-lab:~/profile</text>
<text x="72" y="132" fill="#8a9ab0" font-family="ui-monospace, SFMono-Regular, Menlo, monospace" font-size="16">$ whoami</text>
<text x="72" y="184" fill="#f7fafc" font-family="Inter,Arial,sans-serif" font-weight="800" font-size="54" letter-spacing="1">HISHAM MOHAMED</text>
<text x="72" y="225" fill="url(#accent)" font-family="ui-monospace, SFMono-Regular, Menlo, monospace" font-weight="700" font-size="22">AI ENGINEER / COMPUTER VISION / ML SYSTEMS</text>
<text x="72" y="266" fill="#9fb0c5" font-family="Inter,Arial,sans-serif" font-size="18">From model experiments to tested APIs, real-time pipelines, and deployable AI products.</text>
<text x="72" y="302" fill="#607089" font-family="ui-monospace, SFMono-Regular, Menlo, monospace" font-size="14">CAIRO, EGYPT  •  B.Sc. ARTIFICIAL INTELLIGENCE  •  BUILD → TEST → DEPLOY</text>

<g transform="translate(820 93)" font-family="ui-monospace, SFMono-Regular, Menlo, monospace">
  <path d="M46 46H144M174 46H272M159 61V128M159 158V205" stroke="#46d9ff" stroke-opacity=".55" stroke-width="2" stroke-dasharray="5 7"/>
  <rect x="0" y="20" width="92" height="52" rx="10" fill="#111a27" stroke="#46d9ff" stroke-opacity=".6"/>
  <text x="46" y="51" text-anchor="middle" fill="#d9f8ff" font-size="13">DATA</text>
  <rect x="112" y="20" width="94" height="52" rx="10" fill="#111a27" stroke="#8b5cf6" stroke-opacity=".7"/>
  <text x="159" y="51" text-anchor="middle" fill="#eee8ff" font-size="13">MODEL</text>
  <rect x="226" y="20" width="92" height="52" rx="10" fill="#111a27" stroke="#46d9ff" stroke-opacity=".6"/>
  <text x="272" y="51" text-anchor="middle" fill="#d9f8ff" font-size="13">API</text>
  <rect x="112" y="128" width="94" height="52" rx="10" fill="#131927" stroke="url(#accent)" stroke-width="1.5"/>
  <text x="159" y="159" text-anchor="middle" fill="#ffffff" font-size="13">SYSTEM</text>
  <circle cx="159" cy="219" r="14" fill="#46d9ff" fill-opacity=".12" stroke="#46d9ff" filter="url(#glow)"/>
  <circle cx="159" cy="219" r="4" fill="#46d9ff"/>
  <text x="159" y="251" text-anchor="middle" fill="#7f90a8" font-size="11">DECISION</text>
</g>
</svg>